#N canvas 100 79 584 523 10;
#X obj 274 107 noise~;
#X obj 313 214 vdac~;
#X obj 69 245 samphold~;
#X obj 88 142 fslider;
#X obj 41 189 phasor~;
#X obj 114 174 bp~ 100 10;
#X obj 49 113 fslider;
#X obj 134 458 writesf~;
#X msg 163 379 open slidenoise.wav \, start;
#X msg 125 414 stop;
#X obj 92 357 bng 15 250 50 0 empty empty empty 17 7 0 10 -262144 -1
-1;
#X obj 94 382 del 5000;
#X obj 193 458 print;
#X msg 59 59 100;
#X msg 196 63 2000;
#X obj 115 194 *~ 5;
#X obj 245 202 clip~ -1 1;
#X connect 0 0 5 0;
#X connect 2 0 16 0;
#X connect 3 0 5 1;
#X connect 4 0 2 1;
#X connect 5 0 15 0;
#X connect 6 0 4 0;
#X connect 8 0 7 0;
#X connect 8 0 12 0;
#X connect 9 0 7 0;
#X connect 9 0 12 0;
#X connect 10 0 11 0;
#X connect 10 0 8 0;
#X connect 11 0 9 0;
#X connect 13 0 6 0;
#X connect 14 0 3 0;
#X connect 15 0 2 0;
#X connect 15 0 16 0;
#X connect 16 0 1 0;
#X connect 16 0 7 0;
